REM DIRINDEX 1\2,1\3,1\4,1\5
REM DIRNAME cjc093,folder01,folder02,folder03,folder04
TITLE ""
FILE "Round-09-206-207.mp3" MP3
  TRACK 01 AUDIO
    TITLE "0:"
    INDEX 01 00:00:00
  TRACK 02 AUDIO
    TITLE "2:cjc093_2292"
    INDEX 01 00:00:01
  TRACK 03 AUDIO
    TITLE "0:"
    INDEX 01 00:01:13
  TRACK 04 AUDIO
    TITLE "3:cjc093_2293"
    INDEX 01 00:01:62
  TRACK 05 AUDIO
    TITLE "0:"
    INDEX 01 00:03:37
  TRACK 06 AUDIO
    TITLE "4:cjc093_2294"
    INDEX 01 00:03:63
  TRACK 07 AUDIO
    TITLE "0:"
    INDEX 01 00:07:17
  TRACK 08 AUDIO
    TITLE "2:cjc093_2295"
    INDEX 01 00:08:30
  TRACK 09 AUDIO
    TITLE "0:"
    INDEX 01 00:09:24
  TRACK 10 AUDIO
    TITLE "3:cjc093_2296"
    INDEX 01 00:10:04
  TRACK 11 AUDIO
    TITLE "0:"
    INDEX 01 00:12:38
  TRACK 12 AUDIO
    TITLE "4:cjc093_2297"
    INDEX 01 00:12:65
  TRACK 13 AUDIO
    TITLE "0:"
    INDEX 01 00:15:17
  TRACK 14 AUDIO
    TITLE "3:cjc093_2298"
    INDEX 01 00:16:26
  TRACK 15 AUDIO
    TITLE "0:"
    INDEX 01 00:18:37
  TRACK 16 AUDIO
    TITLE "4:cjc093_2299"
    INDEX 01 00:18:66
  TRACK 17 AUDIO
    TITLE "0:"
    INDEX 01 00:21:47
  TRACK 18 AUDIO
    TITLE "2:cjc093_2300"
    INDEX 01 00:22:60
  TRACK 19 AUDIO
    TITLE "0:"
    INDEX 01 00:24:00
  TRACK 20 AUDIO
    TITLE "3:cjc093_2301"
    INDEX 01 00:24:39
  TRACK 21 AUDIO
    TITLE "0:"
    INDEX 01 00:26:18
  TRACK 22 AUDIO
    TITLE "4:cjc093_2302"
    INDEX 01 00:26:36
  TRACK 23 AUDIO
    TITLE "0:"
    INDEX 01 00:29:42
  TRACK 24 AUDIO
    TITLE "2:cjc093_2303"
    INDEX 01 00:30:50
  TRACK 25 AUDIO
    TITLE "0:"
    INDEX 01 00:31:53
  TRACK 26 AUDIO
    TITLE "3:cjc093_2304"
    INDEX 01 00:32:21
  TRACK 27 AUDIO
    TITLE "0:"
    INDEX 01 00:35:23
  TRACK 28 AUDIO
    TITLE "4:cjc093_2305"
    INDEX 01 00:35:72
  TRACK 29 AUDIO
    TITLE "0:"
    INDEX 01 00:38:67
  TRACK 30 AUDIO
    TITLE "3:cjc093_2306"
    INDEX 01 00:40:05
  TRACK 31 AUDIO
    TITLE "0:"
    INDEX 01 00:41:57
  TRACK 32 AUDIO
    TITLE "4:cjc093_2307"
    INDEX 01 00:42:10
  TRACK 33 AUDIO
    TITLE "0:"
    INDEX 01 00:44:14
  TRACK 34 AUDIO
    TITLE "2:cjc093_2308"
    INDEX 01 00:45:39
  TRACK 35 AUDIO
    TITLE "0:"
    INDEX 01 00:46:41
  TRACK 36 AUDIO
    TITLE "2:cjc093_2309"
    INDEX 01 00:47:11
  TRACK 37 AUDIO
    TITLE "0:"
    INDEX 01 00:49:04
  TRACK 38 AUDIO
    TITLE "3:cjc093_2310"
    INDEX 01 00:49:53
  TRACK 39 AUDIO
    TITLE "0:"
    INDEX 01 00:51:44
  TRACK 40 AUDIO
    TITLE "4:cjc093_2311"
    INDEX 01 00:52:20
  TRACK 41 AUDIO
    TITLE "0:"
    INDEX 01 00:54:25
  TRACK 42 AUDIO
    TITLE "3:cjc093_2312"
    INDEX 01 00:55:40
  TRACK 43 AUDIO
    TITLE "0:"
    INDEX 01 00:56:65
  TRACK 44 AUDIO
    TITLE "4:cjc093_2313"
    INDEX 01 00:57:23
  TRACK 45 AUDIO
    TITLE "0:"
    INDEX 01 00:59:71
  TRACK 46 AUDIO
    TITLE "2:cjc093_2314"
    INDEX 01 01:01:05
  TRACK 47 AUDIO
    TITLE "0:"
    INDEX 01 01:02:34
  TRACK 48 AUDIO
    TITLE "3:cjc093_2315"
    INDEX 01 01:03:02
  TRACK 49 AUDIO
    TITLE "0:"
    INDEX 01 01:05:54
  TRACK 50 AUDIO
    TITLE "4:cjc093_2316"
    INDEX 01 01:06:10
  TRACK 51 AUDIO
    TITLE "0:"
    INDEX 01 01:09:50
  TRACK 52 AUDIO
    TITLE "2:cjc093_2317"
    INDEX 01 01:10:63
  TRACK 53 AUDIO
    TITLE "0:"
    INDEX 01 01:11:60
  TRACK 54 AUDIO
    TITLE "3:cjc093_2318"
    INDEX 01 01:12:32
  TRACK 55 AUDIO
    TITLE "0:"
    INDEX 01 01:14:06
  TRACK 56 AUDIO
    TITLE "4:cjc093_2319"
    INDEX 01 01:14:31
  TRACK 57 AUDIO
    TITLE "0:"
    INDEX 01 01:17:02
  TRACK 58 AUDIO
    TITLE "3:cjc093_2320"
    INDEX 01 01:18:11
  TRACK 59 AUDIO
    TITLE "0:"
    INDEX 01 01:20:42
  TRACK 60 AUDIO
    TITLE "4:cjc093_2321"
    INDEX 01 01:20:71
  TRACK 61 AUDIO
    TITLE "0:"
    INDEX 01 01:23:07
